<?xml version="1.0"?>
<svg version="1.1" xmlns="http://www.w3.org/2000/svg" width="500" height="200" style=""><path fill="#ffffff" d="M16.5380859375,121.044921875q-0.0244140625-0.732421875-0.0244140625-1.46484375q0-2.294921875,0.244140625-4.6142578125q0.29296875-3.076171875,0.390625-6.0546875q0.09765625-3.4912109375,0.29296875-7.2509765625q0.1220703125-2.05078125,0.1220703125-4.052734375q0-1.6357421875-0.0732421875-3.2470703125q0.244140625-0.5615234375,0.64697265625-0.7568359375t1.01318359375-0.1953125q0.29296875,0,0.62255859375,0.048828125t0.57373046875,0.244140625q0.341796875,0.048828125,0.84228515625,0.09765625t0.76904296875,0.29296875q0.09765625,0.146484375,0.50048828125,1.0009765625t0.9521484375,2.0751953125t1.1474609375,2.64892578125t1.1474609375,2.7099609375t0.9521484375,2.25830078125t0.50048828125,1.220703125q2.294921875-4.150390625,4.4921875-8.53271484375t4.8095703125-8.26416015625q0.244140625-0.341796875,0.84228515625-0.50048828125t0.98876953125-0.15869140625q1.0498046875,0,1.52587890625,0.50048828125t0.62255859375,1.28173828125q0.09765625,0.48828125,0.1220703125,1.0498046875q0.0244140625,0.29296875-0.0244140625,0.6103515625q-0.09765625,0.9033203125-0.09765625,1.708984375q0,5.6884765625-0.390625,11.29150390625t-0.7080078125,11.31591796875q-0.048828125,1.171875-0.048828125,2.44140625t0.048828125,2.63671875q0.0244140625,0.48828125,0.0244140625,0.9521484375q0,2.1484375-0.3662109375,4.00390625q-0.341796875,0.5615234375-1.123046875,0.7080078125t-1.318359375,0.146484375q-1.1474609375,0-2.197265625-0.537109375l-0.2685546875-0.3173828125l-0.09765625-0.390625t-0.048828125-0.390625q0-3.5400390625,0.25634765625-7.12890625t0.57373046875-7.16552734375t0.67138671875-7.14111328125t0.59814453125-7.12890625q-1.4404296875,2.392578125-2.79541015625,4.87060546875t-2.55126953125,5.04150390625q-0.439453125,1.0009765625-0.84228515625,2.1484375t-0.96435546875,2.05078125q-0.29296875,0.439453125-0.98876953125,0.537109375t-1.20849609375,0.09765625q-0.48828125,0-1.01318359375-0.1708984375t-0.72021484375-0.732421875q-0.9033203125-2.7587890625-1.9287109375-5.3955078125t-2.0751953125-5.3466796875q0,1.806640625,0.0732421875,4.67529296875t0.0732421875,5.94482421875t-0.09765625,5.8837890625t-0.4638671875,4.443359375q-0.09765625,0.6103515625-0.79345703125,0.7568359375t-1.20849609375,0.146484375q-0.390625,0-0.74462890625-0.048828125t-0.69580078125-0.1953125z M45.045654296875,116.357421875q0-1.3916015625,0.35400390625-2.86865234375t1.123046875-2.6611328125t1.94091796875-1.9287109375t2.83203125-0.74462890625q1.2451171875,0,2.62451171875,0.42724609375t2.52685546875,1.220703125t1.86767578125,1.94091796875t0.72021484375,2.5634765625q0,1.708984375-0.62255859375,3.2470703125t-1.74560546875,2.74658203125t-2.62451171875,1.904296875t-3.25927734375,0.69580078125q-1.4404296875,0-2.5146484375-0.52490234375t-1.79443359375-1.40380859375t-1.07421875-2.0751953125t-0.35400390625-2.5390625z M48.634521484375,116.30859375q0,0.439453125,0.13427734375,1.2939453125t0.40283203125,1.67236328125t0.69580078125,1.416015625t1.03759765625,0.54931640625q1.2939453125-0.146484375,2.13623046875-0.84228515625t1.3671875-1.69677734375t0.732421875-2.1728515625t0.20751953125-2.2216796875q0-1.3427734375-0.52490234375-2.24609375t-1.72119140625-1.46484375q0,0.048828125,0.048828125,0.048828125t0.048828125-0.048828125l-0.6103515625-0.146484375q-0.244140625-0.09765625-0.59814453125-0.2197265625t-0.69580078125-0.537109375q-0.9521484375,0.341796875-1.47705078125,0.87890625t-0.79345703125,1.30615234375t-0.32958984375,1.84326171875t-0.06103515625,2.587890625z M62.54248046875,106.8115234375q0-0.1953125,0.23193359375-0.35400390625t0.52490234375-0.23193359375t0.59814453125-0.09765625t0.45166015625-0.0244140625q1.0986328125,0,1.8798828125,0.9765625t1.35498046875,2.50244140625t0.9765625,3.369140625t0.76904296875,3.67431640625t0.72021484375,3.35693359375t0.79345703125,2.35595703125q0.7568359375-1.4892578125,1.37939453125-3.5888671875t1.1474609375-4.345703125t0.927734375-4.43115234375t0.64697265625-3.82080078125q0.09765625-0.439453125,0.6103515625-0.54931640625t0.8544921875-0.10986328125q0.5615234375,0,0.9765625,0.15869140625t0.4150390625,0.69580078125q0,0.9033203125-0.2197265625,2.45361328125t-0.59814453125,3.47900390625t-0.87890625,3.955078125t-1.07421875,3.84521484375t-1.1962890625,3.22265625t-1.23291015625,1.98974609375q-0.29296875,0.341796875-0.91552734375,0.47607421875t-1.03759765625,0.13427734375q-1.4404296875,0-2.392578125-0.7568359375l0,0.048828125q-1.4892578125-1.3916015625-2.197265625-3.3935546875t-1.025390625-4.1748046875t-0.57373046875-4.3212890625t-0.86669921875-3.90625q-0.09765625-0.1953125-0.244140625-0.57373046875t-0.341796875-0.7568359375t-0.32958984375-0.72021484375t-0.13427734375-0.537109375z M81.797119140625,115.3076171875q0-2.24609375,0.52490234375-4.40673828125t0.89111328125-4.30908203125q0.09765625-0.5615234375,0.76904296875-0.69580078125t1.13525390625-0.13427734375q0.8056640625,0,1.2939453125,0.244140625q0.1953125,0.09765625,0.3662109375,0.2197265625t0.1708984375,0.3173828125q0,2.099609375-0.50048828125,4.1015625t-0.50048828125,4.248046875q0,0.7568359375,0.10986328125,1.42822265625t0.20751953125,1.33056640625l0.146484375,0.7080078125q0,0.1953125,0.0244140625,0.341796875t0.0732421875,0.341796875q0,0.439453125-0.62255859375,0.59814453125t-1.08642578125,0.15869140625q-0.7080078125,0-1.30615234375-0.28076171875t-0.93994140625-0.96435546875l-0.341796875-0.7080078125q-0.29296875-0.5615234375-0.29296875-1.25732421875t-0.1220703125-1.28173828125z M83.359619140625,100.6103515625l0-0.4638671875q0-1.1474609375,0.57373046875-2.05078125t1.72119140625-0.9033203125q0.146484375,0,0.28076171875,0.0244140625t0.28076171875,0.0244140625q0.29296875,0.048828125,0.76904296875,0.23193359375t0.47607421875,0.57373046875l0,0.048828125q-0.09765625,0.1953125-0.1220703125,0.40283203125t-0.1220703125,0.35400390625l0.048828125-0.048828125q-0.29296875,0.7568359375-0.47607421875,1.220703125t-0.40283203125,0.74462890625t-0.54931640625,0.40283203125t-0.93994140625,0.1220703125q-0.09765625,0-0.341796875-0.0244140625t-0.52490234375-0.09765625t-0.47607421875-0.1953125t-0.1953125-0.3662109375z M92.4580078125,116.89453125q0-1.708984375,0.37841796875-4.0283203125t1.28173828125-4.39453125t2.38037109375-3.52783203125t3.72314453125-1.45263671875q2.099609375,0,3.1494140625,1.20849609375t1.0498046875,3.25927734375q0,1.3427734375-0.50048828125,2.94189453125t-1.42822265625,3.02734375t-2.197265625,2.38037109375t-2.83203125,0.9521484375l-0.634765625-0.048828125q0,0.6591796875,0.1953125,1.77001953125t0.57373046875,2.20947265625t0.9765625,1.9287109375t1.45263671875,0.830078125q1.2451171875,0,2.392578125-1.0009765625t2.1728515625-2.2216796875t1.904296875-2.2216796875t1.611328125-1.0009765625q0.390625,0,0.8056640625,0.1220703125t0.4638671875,0.68359375q0,0.341796875-0.18310546875,0.5615234375t-0.32958984375,0.48828125q-0.7568359375,1.2939453125-1.64794921875,2.4658203125t-2.01416015625,2.1240234375t-2.45361328125,1.50146484375t-2.94189453125,0.54931640625q-2.099609375,0-3.4912109375-0.74462890625t-2.24609375-2.001953125t-1.23291015625-2.9052734375t-0.37841796875-3.45458984375z M96.828125,115.0390625l0.68359375,0.6103515625q0.48828125,0.439453125,0.9765625,0.1953125t0.87890625-0.89111328125t0.72021484375-1.59912109375t0.5859375-1.953125t0.37841796875-1.953125t0.1220703125-1.5869140625l0-0.830078125t-0.0732421875-0.87890625t-0.25634765625-0.69580078125t-0.57373046875-0.35400390625q-0.1220703125-0.0244140625-0.2197265625-0.0244140625q-0.830078125,0-1.416015625,1.0498046875q-0.634765625,1.171875-1.025390625,2.84423828125t-0.5615234375,3.43017578125t-0.2197265625,2.63671875z M112.86010742188,109.5947265625q0-1.0009765625,0.5859375-1.72119140625t1.42822265625-1.171875t1.84326171875-0.67138671875t1.85546875-0.2197265625q0.6591796875,0,1.7578125,0.1953125t2.1484375,0.5859375t1.81884765625,1.025390625t0.76904296875,1.4892578125q0,0.390625-0.29296875,0.69580078125t-0.6103515625,0.30517578125q-0.6591796875,0-1.1962890625-0.42724609375t-1.11083984375-0.9033203125t-1.25732421875-0.9033203125t-1.5380859375-0.42724609375t-1.55029296875,0.54931640625t-0.69580078125,1.45263671875q0,1.4892578125,1.0498046875,2.91748046875t2.30712890625,3.0029296875t2.30712890625,3.30810546875t1.0498046875,3.8330078125q0,0.9033203125-0.37841796875,1.52587890625t-1.0009765625,1.01318359375t-1.40380859375,0.59814453125t-1.513671875,0.20751953125q-0.8056640625,0-1.8798828125-0.37841796875t-2.0263671875-1.0009765625t-1.59912109375-1.45263671875t-0.64697265625-1.7333984375q0-0.439453125,0.62255859375-0.5615234375t0.91552734375-0.1220703125q0.146484375,0,0.45166015625,0.09765625t0.59814453125,0.2197265625t0.52490234375,0.2685546875t0.18310546875,0.3173828125q0.244140625,0.29296875,0.74462890625,0.86669921875t1.0009765625,0.927734375t0.87890625,0.25634765625t0.37841796875-1.0986328125q0-1.904296875-1.025390625-3.50341796875t-2.23388671875-3.125t-2.23388671875-3.02734375t-1.025390625-3.21044921875z M140.99340820312,113.0615234375q-0.7080078125-0.5615234375,0-1.220703125q0.29296875-0.146484375,1.01318359375-0.2197265625t1.55029296875-0.09765625t1.57470703125-0.0244140625l1.06201171875,0q0-0.6103515625-0.048828125-1.30615234375t-0.048828125-1.40380859375q0-1.1962890625,0.4150390625-2.1484375t1.8798828125-0.9521484375q0.5615234375,0,1.20849609375,0.15869140625t0.89111328125,0.79345703125q0.048828125,1.1962890625,0.0732421875,2.42919921875t0.0244140625,2.42919921875q0.1953125,0,0.9521484375-0.048828125t1.7578125-0.048828125q0.6591796875,0,1.26953125,0.048828125t1.13525390625,0.146484375t0.8544921875,0.32958984375t0.32958984375,0.52490234375t-0.2685546875,0.50048828125t-0.64697265625,0.30517578125t-0.78125,0.146484375t-0.59814453125,0.048828125l-2.7099609375,0l-0.62255859375,0t-0.62255859375-0.048828125q0,0.48828125,0.048828125,1.5625t0.048828125,2.24609375q0,1.4404296875-0.146484375,2.392578125t-0.7080078125,0.9521484375l-0.048828125,0q-0.6591796875,0.341796875-1.4892578125,0.341796875q-0.6591796875,0-1.18408203125-0.2197265625t-1.01318359375-0.634765625l-0.048828125-0.537109375l0.048828125-6.103515625l-0.9765625,0t-1.55029296875-0.0244140625t-1.57470703125-0.09765625t-1.0498046875-0.2197265625z M149.88012695312,120.556640625l0.3173828125-0.09765625z"/><path fill="#" d=""/></svg>
